<?xml version="1.0" encoding="utf-8"?>
<!-- Generator: Adobe Illustrator 19.0.0, SVG Export Plug-In . SVG Version: 6.00 Build 0)  -->
<svg version="1.1" id="Слой_1" xmlns="http://www.w3.org/2000/svg" xmlns:xlink="http://www.w3.org/1999/xlink" x="0px" y="0px"
	 viewBox="0 0 155 97.3" style="enable-background:new 0 0 155 97.3;" xml:space="preserve">
<style type="text/css">
	.st0{fill:#FFFFFF;}
	.st1{fill:#FDD800;}
</style>
<path id="XMLID_293_" class="st0" d="M30.9,58c-0.7-0.3-1.5-0.6-2.3-0.9c-3.1-1-6.5-2-6.5-6.6c0-4.1,2.9-6.6,7.4-6.6
	c1.9,0,6.4,0.5,6.4,2.9c0,1.1-0.8,2-2.2,2c-0.6,0-1-0.2-1.6-0.4c-0.6-0.2-1.3-0.5-2.4-0.5c-1.6,0-3,0.5-3,2.4c0,1.4,0.8,1.9,1.3,2.1
	c0.8,0.4,1.6,0.7,2.3,0.9c3.1,1,6.5,2.1,6.5,6.6c0,4.4-3.4,7-7.9,7c-2.4,0-6.8-0.8-6.8-3.1c0-1,0.9-2,2.1-2c0.5,0,1,0.2,1.6,0.4
	c0.8,0.3,1.8,0.6,3.2,0.6c2.2,0,3.3-1,3.3-2.7C32.2,58.7,31.5,58.3,30.9,58z"/>
<path id="XMLID_317_" class="st0" d="M56.2,67c-1.2,0-2.2-1-2.2-2.1v-7.4h-6.8v7.4c0,1.1-1,2.1-2.2,2.1c-1.2,0-2.2-1-2.2-2.1V46
	c0-1.1,1-2,2.2-2c1.2,0,2.2,1,2.2,2v7.4h6.8V46c0-1.1,1.1-2,2.2-2c1.2,0,2.2,1,2.2,2v18.9C58.4,66,57.4,67,56.2,67z"/>
<path id="XMLID_323_" class="st0" d="M80.9,59v5.8c0,1.1-1,2.1-2.2,2.1c-1.2,0-2.2-1-2.2-2.1V46.5c0-1.2,1.1-2.3,2.5-2.3h4.7
	c6,0,8.1,3.6,8.1,7.5c0,4.7-3.2,7.4-8.1,7.4H80.9z M80.9,55h2.7c2.4,0,3.7-1.1,3.7-3.3c0-1.7-0.7-3.4-3.7-3.4h-2.7V55z"/>
<path id="XMLID_328_" class="st0" d="M105.4,67c-5.1,0-8-3.4-8-7.9V46c0-1.2,1-2.1,2.3-2.1c1.2,0,2.2,1,2.2,2.1v13
	c0,2.3,1.1,3.9,3.5,3.9c2.4,0,3.5-1.6,3.5-3.9V46c0-1.1,1-2.1,2.2-2.1c1.3,0,2.3,1,2.3,2.1v13C113.4,63.6,110.5,67,105.4,67z"/>
<path id="XMLID_331_" class="st0" d="M122.8,65.7L122.8,65.7c-0.4,0.5-0.9,1.3-2,1.3c-1.1,0-2.2-1-2.2-2.1c0-0.4,0.2-0.8,0.3-1.1
	l5.5-8.8l-5.1-8c-0.2-0.3-0.3-0.7-0.3-1.1c0-1,1-2,2.1-2c1,0,1.8,0.7,2.2,1.5l3.6,5.9l3.6-5.9c0.4-0.6,1.1-1.5,2.2-1.5
	c1.1,0,2.1,0.9,2.1,2c0,0.3-0.1,0.7-0.3,1.1l-5,8l5.5,8.8c0.2,0.3,0.3,0.7,0.3,1.1c0,1.1-1.1,2.1-2.1,2.1c-1.1,0-1.7-0.7-2.1-1.3
	l-4.2-7L122.8,65.7z"/>
<path id="XMLID_28_" class="st0" d="M67.4,43.9c-1.2,0-2.2,1-2.2,2v18.9c0,0,0,10.1,2.3,13.4c0,0,2.2-1.8,2.2-13.4c0,0,0,0,0,0V46
	C69.7,44.9,68.7,43.9,67.4,43.9z"/>
<path id="XMLID_292_" class="st1" d="M67.4,25l-9.2,16h4.5c2,0,3.7-1.5,4.1-3.4l0.7-6.6l0.7,6.6c0.3,2,2,3.4,4.1,3.4h4.5L67.4,25z"
	/>
</svg>
