<svg xmlns="http://www.w3.org/2000/svg" viewBox="0 0 148.48 43.63"><defs><style>.cls-1{fill:#1ebdc2;}.cls-2{fill:#fff;}</style></defs><title>Ресурс 4</title><g id="Слой_2" data-name="Слой 2"><g id="Слой_1-2" data-name="Слой 1"><path class="cls-1" d="M24.13,15.64a2.81,2.81,0,0,1,2.7-1.31H37l-2.22-3.56L28.94,1.33a2.83,2.83,0,0,0-4.81,0L.43,39.3a2.83,2.83,0,0,0,2.4,4.34h3.9"/><path class="cls-1" d="M30.08,17.46l9.17,14.69a2.84,2.84,0,0,1-2.4,4.34H16.23A2.83,2.83,0,0,1,15,36.23l-4.61,7.41H50.23c.22,0,1.45,0,1.64-.09l-.28,0a2.48,2.48,0,0,0,2-3.93l-6-8.45L46.5,29.46a3.72,3.72,0,0,1,.25-4.13c.58-.56,1.5-1,5.38-.93h.65l-4.33-6.95"/><path class="cls-2" d="M59.35,23.82h8.34a1.05,1.05,0,0,0,.69-.15.45.45,0,0,0,.15-.32.51.51,0,0,0-.3-.5,4.84,4.84,0,0,0-.67-.25L61.74,21a2.77,2.77,0,0,1-1.08-.51,4.1,4.1,0,0,1-.64-.63,3.52,3.52,0,0,1-.68-1.61,11.43,11.43,0,0,1-.14-1.74,9.13,9.13,0,0,1,.14-1.53,2.73,2.73,0,0,1,.81-1.48,3.44,3.44,0,0,1,1-.66,3.79,3.79,0,0,1,1.59-.29h9.93v3.74H65a4.91,4.91,0,0,0-.58,0,.56.56,0,0,0-.22.06.43.43,0,0,0-.24.41.57.57,0,0,0,.42.54,6.16,6.16,0,0,0,.85.28l5.07,1.35a7.45,7.45,0,0,1,1.09.39,3.23,3.23,0,0,1,1,.67,2.92,2.92,0,0,1,.56.79,3.85,3.85,0,0,1,.31.9,6.86,6.86,0,0,1,.13.91q0,.45,0,.84a11.52,11.52,0,0,1-.11,1.48,3.16,3.16,0,0,1-.62,1.5,2.72,2.72,0,0,1-.69.67,2.69,2.69,0,0,1-.76.34,3.76,3.76,0,0,1-.8.13l-.78,0H59.35Z"/><path class="cls-2" d="M90.08,27.56H85.22v-6H79.76v6H74.9v-15h4.86v5.33h5.46V12.51h4.86Z"/><path class="cls-2" d="M92.18,27.56v-15H97v15Z"/><path class="cls-2" d="M99.13,27.56V15.35a5.78,5.78,0,0,1,.11-1.05,2,2,0,0,1,.49-1,2.28,2.28,0,0,1,.73-.53,2.83,2.83,0,0,1,1.27-.25h8.32a7.85,7.85,0,0,1,1.72.18,2.73,2.73,0,0,1,1.44.87,3.7,3.7,0,0,1,.83,1.52,9.25,9.25,0,0,1,.29,2.59c0,.26,0,.6,0,1a9,9,0,0,1-.17,1.32,7.16,7.16,0,0,1-.41,1.33A2.78,2.78,0,0,1,113,22.4a3.11,3.11,0,0,1-1.28.63,5.73,5.73,0,0,1-1.37.18H104v4.34Zm8.34-8.08q.45,0,.88,0a1.08,1.08,0,0,0,.73-.35,1.91,1.91,0,0,0,.39-1.31,3.19,3.19,0,0,0-.06-.62.94.94,0,0,0-.37-.56,1.26,1.26,0,0,0-.7-.3,7.81,7.81,0,0,0-.83,0h-2.69a.91.91,0,0,0-.46.1.75.75,0,0,0-.25.23.66.66,0,0,0-.11.28,1.94,1.94,0,0,0,0,.28v2.34Z"/><path class="cls-2" d="M120.63,12.51v8.64a6.22,6.22,0,0,0,.11,1.1,1.67,1.67,0,0,0,.64,1,2.3,2.3,0,0,0,.83.4,3.8,3.8,0,0,0,2,0,2.31,2.31,0,0,0,.83-.4,1.55,1.55,0,0,0,.43-.49,2.62,2.62,0,0,0,.23-.57,2.72,2.72,0,0,0,.09-.56c0-.18,0-.35,0-.5V12.51h4.86v9q0,.58-.05,1.16a6.11,6.11,0,0,1-.23,1.16,5.42,5.42,0,0,1-.48,1.13,4.88,4.88,0,0,1-.81,1,4.68,4.68,0,0,1-1.27.91,6.7,6.7,0,0,1-1.45.5,10.3,10.3,0,0,1-1.57.23q-.81.05-1.6.05t-1.61-.05a10.3,10.3,0,0,1-1.56-.23,6.7,6.7,0,0,1-1.45-.5,4.69,4.69,0,0,1-1.27-.91,4.88,4.88,0,0,1-.81-1,5.32,5.32,0,0,1-.48-1.13,6,6,0,0,1-.23-1.16q-.05-.58-.05-1.16v-9Z"/><path class="cls-2" d="M142.68,27.56l-2.73-4.24-2.73,4.24h-5.8l5.7-7.63-5.52-7.42h5.8l2.56,4,2.56-4h5.8l-5.52,7.42,5.7,7.63Z"/><path class="cls-2" d="M79.28,33.64c-.5-.24-1.35-.26-1.35-1.16a1,1,0,0,1,1.09-1c.27,0,.93.06.93.4a.26.26,0,0,1-.28.25c-.17,0-.29-.14-.63-.14s-.55.11-.55.47a.42.42,0,0,0,.25.42c.51.26,1.35.26,1.35,1.15a1.05,1.05,0,0,1-1.17,1.07c-.34,0-1-.11-1-.42a.26.26,0,0,1,.26-.26,3.41,3.41,0,0,0,.75.17c.39,0,.59-.19.59-.52A.43.43,0,0,0,79.28,33.64Z"/><path class="cls-2" d="M85.26,35.11a.28.28,0,0,1-.28-.26V33.55H83.77v1.29a.28.28,0,0,1-.55,0v-3.1a.28.28,0,0,1,.55,0V33H85V31.74a.28.28,0,0,1,.55,0v3.1A.28.28,0,0,1,85.26,35.11Z"/><path class="cls-2" d="M88.8,31.74a.27.27,0,0,1,.27-.26.27.27,0,0,1,.28.26v3.1a.27.27,0,0,1-.28.26.27.27,0,0,1-.27-.26Z"/><path class="cls-2" d="M93.16,33.8v1a.27.27,0,0,1-.55,0v-3a.31.31,0,0,1,.31-.3h.74a1.14,1.14,0,1,1,0,2.28Zm0-.51h.5c.42,0,.65-.2.65-.63s-.12-.62-.65-.62h-.5Z"/><path class="cls-2" d="M99.13,35.11A1.13,1.13,0,0,1,98,33.88V31.75a.27.27,0,0,1,.28-.27.27.27,0,0,1,.27.27v2.13c0,.42.2.71.63.71s.63-.29.63-.71V31.75a.27.27,0,0,1,.27-.27.28.28,0,0,1,.29.27v2.13A1.13,1.13,0,0,1,99.13,35.11Z"/><path class="cls-2" d="M103.83,34.93a.3.3,0,0,1-.26.17.27.27,0,0,1-.26-.26.28.28,0,0,1,0-.14l.89-1.48-.82-1.35a.34.34,0,0,1,0-.14.27.27,0,0,1,.26-.25.34.34,0,0,1,.28.2l.63,1.09.63-1.09a.38.38,0,0,1,.29-.2.26.26,0,0,1,.25.26.36.36,0,0,1,0,.14l-.81,1.35.89,1.48a.28.28,0,0,1,0,.14.27.27,0,0,1-.26.26.29.29,0,0,1-.26-.17l-.73-1.26Z"/><path class="cls-2" d="M109.19,35.11a.34.34,0,0,1-.35-.33.34.34,0,0,1,.69,0A.34.34,0,0,1,109.19,35.11Z"/><path class="cls-2" d="M112.54,32.77c0-.78.38-1.29,1.2-1.29.49,0,1,.22,1,.48a.25.25,0,0,1-.25.24.32.32,0,0,1-.2-.08l0,0a.76.76,0,0,0-.46-.14c-.51,0-.68.31-.68.81v1c0,.5.17.81.68.81a.78.78,0,0,0,.46-.14h0a.32.32,0,0,1,.2-.08.25.25,0,0,1,.25.24c0,.27-.47.48-1,.48-.83,0-1.2-.51-1.2-1.29Z"/><path class="cls-2" d="M117.69,33.8v-1a1.23,1.23,0,1,1,2.45,0v1a1.23,1.23,0,1,1-2.45,0Zm.55-1v1c0,.46.21.79.68.79s.68-.32.68-.79v-1c0-.47-.18-.78-.68-.78S118.24,32.31,118.24,32.77Z"/><path class="cls-2" d="M126.29,34.85a.27.27,0,0,1-.27.25.28.28,0,0,1-.28-.25V32.77l-.69,1.42a.28.28,0,0,1-.26.16.28.28,0,0,1-.26-.16l-.69-1.42v2.08a.28.28,0,0,1-.29.25.26.26,0,0,1-.27-.25v-3.1a.27.27,0,0,1,.29-.27.29.29,0,0,1,.28.16l.94,1.93.93-1.94a.29.29,0,0,1,.28-.16.28.28,0,0,1,.29.27Z"/></g></g></svg>